<svg width="1600" height="921" viewBox="0 0 1600 921" fill="none" xmlns="http://www.w3.org/2000/svg">
<path opacity="0.987" fill-rule="evenodd" clip-rule="evenodd" d="M522.5 23.5C536.139 22.557 549.472 24.057 562.5 28.0001C570.154 32.963 572.654 39.797 570 48.5C568.833 49.667 567.667 50.833 566.5 52C560.333 54.278 554.333 56.945 548.5 60C540.167 66.333 531.833 72.667 523.5 79C513.184 82.665 504.851 88.9981 498.5 98.0001C491.403 98.3711 486.736 101.871 484.5 108.5C475.473 109.059 466.473 109.892 457.5 111C455.606 112.079 455.273 113.413 456.5 115C461.746 115.867 466.746 117.367 471.5 119.5C473.313 123.858 472.647 127.691 469.5 131C460.464 131.717 451.464 131.384 442.5 130C428.776 127.784 425.776 121.117 433.5 110C430.586 106.085 428.086 101.919 426 97.5001C425.378 92.8221 426.544 88.655 429.5 85C431.137 84.399 432.803 83.899 434.5 83.5C440.006 85.505 445.172 88.1711 450 91.5001C451.621 91.2751 452.788 90.4421 453.5 89.0001C451.319 85.1101 449.985 80.943 449.5 76.5C449.695 68.874 449.862 61.208 450 53.5C452.953 48.214 456.953 43.88 462 40.5C463 37.167 464 33.8331 465 30.5001C467.592 29.0181 469.925 29.352 472 31.5C475.739 38.344 477.406 45.677 477 53.5C481.419 57.968 483.919 56.968 484.5 50.5C482.287 46.785 480.287 42.951 478.5 39C478.78 37.605 479.447 36.438 480.5 35.5C494.457 30.841 508.457 26.841 522.5 23.5Z" fill="#393939"/>
<path opacity="0.992" fill-rule="evenodd" clip-rule="evenodd" d="M640.5 35.4999C649.783 35.2429 658.449 37.4089 666.5 41.9999C668.956 44.4079 670.789 47.2409 672 50.4999C675.71 52.2929 679.043 54.6259 682 57.4999C682.728 60.2299 682.562 62.8969 681.5 65.4999C682 66.4999 682.5 67.4999 683 68.4999C687.138 70.8689 691.638 72.3689 696.5 72.9999C700.007 74.8609 701.173 77.6949 700 81.4999C692.248 89.2479 685.248 97.5809 679 106.5C677.442 110.007 676.608 113.673 676.5 117.5C677.664 123.806 678.164 130.139 678 136.5C674.667 142.5 671.333 148.5 668 154.5C666.947 160.661 665.28 166.661 663 172.5C662.435 180.509 661.769 188.509 661 196.5C655.945 203.449 649.445 208.616 641.5 212C634.133 213.54 626.8 215.207 619.5 217C609.481 224.013 598.814 230.013 587.5 235C585 237.5 582.5 240 580 242.5C575.422 251.99 570.589 261.324 565.5 270.5C561.675 274.286 557.675 274.453 553.5 271C540.956 257.734 533.956 241.901 532.5 223.5C532.736 219.221 533.903 215.221 536 211.5C539.333 206.833 543.333 202.833 548 199.5C548.667 195.833 548.667 192.167 548 188.5C545.584 183.999 542.917 179.666 540 175.5C538.853 172.245 538.02 168.912 537.5 165.5C540.012 156.969 542.679 148.469 545.5 140C545.068 136.566 543.401 133.9 540.5 132C533.144 130.812 525.811 129.479 518.5 128C513.286 124.778 509.452 120.278 507 114.5C505.607 110.798 506.774 108.798 510.5 108.5C514.223 109.297 517.89 110.297 521.5 111.5C522.72 111.113 523.387 110.28 523.5 109C519.717 106.841 515.884 104.674 512 102.5C510.517 99.2979 510.183 95.9639 511 92.4999C512.491 90.9959 514.324 90.1629 516.5 89.9999C523.208 89.7109 529.875 89.0449 536.5 87.9999C541.718 86.4199 545.051 83.0859 546.5 77.9999C544.564 73.1279 545.23 68.7949 548.5 64.9999C552.504 64.1189 556.504 63.2859 560.5 62.4999C563.706 55.2169 569.373 51.3839 577.5 50.9999C583.349 50.3979 589.182 50.5649 595 51.4999C599.786 50.4619 604.62 49.6289 609.5 48.9999C619.673 43.9079 630.007 39.4079 640.5 35.4999Z" fill="#393939"/>
<path opacity="0.974" fill-rule="evenodd" clip-rule="evenodd" d="M1000.5 37.5C1005.26 39.043 1009.92 40.876 1014.5 43C1015.01 45.57 1016.01 47.903 1017.5 50C1021.12 51.105 1024.79 52.105 1028.5 53C1031.13 57.084 1033.63 61.25 1036 65.5C1036.59 66.899 1036.43 68.232 1035.5 69.5C1023.81 71.772 1012.47 70.272 1001.5 65C1001 64.5 1000.5 64 1000 63.5C1000.11 57.537 998.95 51.871 996.5 46.5C997.46 43.269 998.79 40.269 1000.5 37.5Z" fill="#393939"/>
<path opacity="0.979" fill-rule="evenodd" clip-rule="evenodd" d="M418.5 53.5C420.857 53.337 423.19 53.503 425.5 54C427.986 57.137 429.819 60.637 431 64.5C436.094 66.876 440.427 70.209 444 74.5C444.123 78.063 442.29 80.23 438.5 81C435.331 81.978 432.497 81.478 430 79.5C429.167 80.333 428.333 81.167 427.5 82C422.833 82.667 418.167 82.667 413.5 82C412.774 75.679 412.608 69.179 413 62.5C414.357 59.102 416.19 56.102 418.5 53.5Z" fill="#393939"/>
<path opacity="0.969" fill-rule="evenodd" clip-rule="evenodd" d="M1220.5 54.5C1228.49 54.313 1231.32 57.979 1229 65.5C1224.26 69.122 1219.42 72.622 1214.5 76C1210.47 77.04 1206.8 76.374 1203.5 74C1198.94 69.39 1196.77 63.89 1197 57.5C1197.5 57 1198 56.5 1198.5 56C1202.87 55.291 1207.2 55.458 1211.5 56.5C1214.67 56.009 1217.67 55.343 1220.5 54.5Z" fill="#393939"/>
<path opacity="0.964" fill-rule="evenodd" clip-rule="evenodd" d="M1245.5 54.5C1250.85 54.656 1252.85 57.156 1251.5 62C1245.52 64.098 1239.69 63.931 1234 61.5C1233.28 59.888 1233.45 58.388 1234.5 57C1238.35 56.367 1242.01 55.533 1245.5 54.5Z" fill="#393939"/>
<path opacity="0.983" fill-rule="evenodd" clip-rule="evenodd" d="M397.5 55.5C401.009 56.474 402.176 58.807 401 62.5C399.174 64.074 397.007 64.907 394.5 65C392.288 67.921 390.455 71.088 389 74.5C386.913 75.794 384.746 76.961 382.5 78C383.894 78.956 384.561 80.289 384.5 82C383.014 85.8 381.681 89.633 380.5 93.5C388.166 90.986 392.166 93.82 392.5 102C392.516 104.305 391.516 105.972 389.5 107C382.873 108.866 376.373 108.366 370 105.5C363.251 107.265 356.418 108.098 349.5 108C348.106 107.044 347.439 105.711 347.5 104C348.252 101.846 348.419 99.68 348 97.5C341.712 94.291 340.045 89.625 343 83.5C341.334 81.597 339.5 81.263 337.5 82.5C332.987 82.105 331.487 79.771 333 75.5C333.833 73.333 335.333 71.833 337.5 71C344.863 71.313 351.863 69.98 358.5 67C367.239 66.635 375.239 63.968 382.5 59C387.626 57.82 392.626 56.654 397.5 55.5Z" fill="#393939"/>
<path opacity="0.962" fill-rule="evenodd" clip-rule="evenodd" d="M1038.5 58.5C1044.84 59.002 1050.67 61.002 1056 64.5C1056.75 67.303 1056.42 69.97 1055 72.5C1052.15 75.052 1049.65 77.885 1047.5 81C1044.47 82.14 1042.31 81.306 1041 78.5C1038.98 71.853 1038.14 65.186 1038.5 58.5Z" fill="#393939"/>
<path opacity="0.983" fill-rule="evenodd" clip-rule="evenodd" d="M865.5 72.5002C873.24 72.1442 880.9 72.6442 888.5 74.0002C889.52 75.0492 889.68 76.2162 889 77.5002C884.09 83.0782 878.59 87.9112 872.5 92.0002C870.58 92.8082 868.58 93.3082 866.5 93.5002C859.86 92.2992 853.2 91.7992 846.5 92.0002C846.86 94.8422 846.36 97.6762 845 100.5C840.59 103.955 836.09 107.289 831.5 110.5C828.73 115.012 826.07 119.512 823.5 124C812.31 123.823 802.806 119.656 795 111.5C792.252 106.334 789.252 101.334 786 96.5002C783.941 93.0512 782.441 89.3842 781.5 85.5002C782.078 82.4202 783.912 81.0862 787 81.5002C792.976 83.0562 798.976 83.3902 805 82.5002C809.41 82.9312 812.41 85.2652 814 89.5002C814.43 86.8212 814.27 84.1542 813.5 81.5002C813.22 79.3772 814.05 78.0442 816 77.5002C820.01 78.8382 824.01 80.1712 828 81.5002C831.37 81.1332 833.54 79.2992 834.5 76.0002C839.77 75.3262 844.93 75.8262 850 77.5002C855.15 75.4292 860.31 73.7622 865.5 72.5002Z" fill="#393939"/>
<path opacity="0.976" fill-rule="evenodd" clip-rule="evenodd" d="M401.5 75.5C404.099 75.549 406.266 76.549 408 78.5C412.719 87.22 414.719 96.553 414 106.5C414.801 110.633 417.301 112.466 421.5 112C424.691 114.189 425.691 117.022 424.5 120.5C415.715 122.898 407.881 121.232 401 115.5C399.295 108.716 397.795 101.882 396.5 95C398.199 88.37 399.866 81.87 401.5 75.5Z" fill="#393939"/>
<path opacity="0.957" fill-rule="evenodd" clip-rule="evenodd" d="M1216.5 77.5C1222.81 79.317 1229.14 81.15 1235.5 83C1239.65 86.406 1238.99 88.739 1233.5 90C1229.5 90.667 1225.5 90.667 1221.5 90C1219.43 86.026 1217.77 81.859 1216.5 77.5Z" fill="#393939"/>
<path opacity="0.993" fill-rule="evenodd" clip-rule="evenodd" d="M1210.5 117.5C1215.79 117.751 1219.95 115.751 1223 111.5C1224.78 106.771 1226.95 102.271 1229.5 97.9999C1233.67 96.2369 1238.01 95.0709 1242.5 94.4999C1250.93 98.0329 1259.6 100.866 1268.5 103C1285.53 104.118 1302.53 105.618 1319.5 107.5C1329.93 107.859 1339.26 105.025 1347.5 98.9999C1358.04 95.4959 1368.87 93.6619 1380 93.4999C1405.28 98.7959 1430.78 102.963 1456.5 106C1460.75 107.757 1465.09 109.257 1469.5 110.5C1475.84 108.489 1482.17 106.489 1488.5 104.5C1495.7 104.857 1498.53 108.523 1497 115.5C1497.31 121.581 1494.48 124.581 1488.5 124.5C1483.24 123.016 1477.91 122.516 1472.5 123C1469.33 124.833 1466.83 127.333 1465 130.5C1464.29 132.367 1464.79 133.867 1466.5 135C1470.23 136.461 1473.73 138.294 1477 140.5C1480.13 147.411 1478.3 152.578 1471.5 156C1465.71 158.929 1459.71 161.263 1453.5 163C1449.51 165.989 1446.68 169.822 1445 174.5C1444.67 181.833 1444.33 189.167 1444 196.5C1438.41 196.827 1432.91 197.327 1427.5 198C1424.24 201.095 1420.57 203.595 1416.5 205.5C1415.41 209.108 1415.24 212.775 1416 216.5C1417 218.833 1418.67 220.5 1421 221.5C1422.66 227.446 1423.66 233.446 1424 239.5C1418.25 249.334 1412.25 259.001 1406 268.5C1405.67 272.5 1405.33 276.5 1405 280.5C1403.86 283.915 1402.19 284.249 1400 281.5C1398.57 275.118 1396.24 269.118 1393 263.5C1392.33 253.833 1392.33 244.167 1393 234.5C1395 225.833 1397 217.167 1399 208.5C1400.36 202.377 1402.86 196.877 1406.5 192C1406.4 188.734 1404.73 186.9 1401.5 186.5C1399.37 187.786 1397.04 188.619 1394.5 189C1384.37 188.368 1374.71 190.034 1365.5 194C1365 194.5 1364.5 195 1364 195.5C1363.79 199.089 1363.29 202.589 1362.5 206C1365.02 209.847 1366.19 214.014 1366 218.5C1363.29 220.809 1360.12 222.143 1356.5 222.5C1353.29 221.453 1350.46 219.786 1348 217.5C1345.22 219.28 1342.72 221.447 1340.5 224C1335.25 225.174 1329.92 225.841 1324.5 226C1319.56 226.272 1316.4 228.772 1315 233.5C1314.25 238.489 1313.58 243.489 1313 248.5C1309.58 254.342 1306.41 260.342 1303.5 266.5C1304 266.833 1304.5 267.167 1305 267.5C1307.65 265.836 1310.48 265.336 1313.5 266C1315.4 267.815 1317.07 269.815 1318.5 272C1325.06 272.197 1330.56 274.697 1335 279.5C1341.48 297.395 1343.14 315.728 1340 334.5C1339.28 344.514 1334.61 351.848 1326 356.5C1323.06 355.577 1320.23 354.577 1317.5 353.5C1317 359.55 1316.16 365.55 1315 371.5C1312.05 373.775 1309.89 376.609 1308.5 380C1312.14 383.26 1315.98 386.427 1320 389.5C1320.3 391.888 1321.14 394.055 1322.5 396C1322.48 398.969 1322.31 402.135 1322 405.5C1317.82 407.001 1313.65 408.501 1309.5 410C1307.56 410.743 1305.73 410.576 1304 409.5C1304.08 404.505 1304.08 399.505 1304 394.5C1301.72 392.711 1299.72 390.711 1298 388.5C1297.79 384.911 1297.29 381.411 1296.5 378C1294.83 377.333 1293.17 377.333 1291.5 378C1288.17 381.346 1284.33 383.846 1280 385.5C1279.17 385.167 1278.33 384.833 1277.5 384.5C1278.39 381.608 1279.73 378.941 1281.5 376.5C1280.21 373.039 1278.21 372.539 1275.5 375C1272.71 380.119 1268.88 384.286 1264 387.5C1263.32 388.784 1263.48 389.951 1264.5 391C1267.88 392.107 1271.05 393.607 1274 395.5C1278.75 392.642 1283.91 391.309 1289.5 391.5C1289.66 393.199 1289.49 394.866 1289 396.5C1285.75 398.543 1282.58 400.71 1279.5 403C1278.42 404.726 1278.26 406.559 1279 408.5C1299.79 427.202 1300.79 446.868 1282 467.5C1277.7 472.805 1272.53 476.972 1266.5 480C1261.77 480.273 1257.1 480.939 1252.5 482C1252.04 482.414 1251.71 482.914 1251.5 483.5C1256.57 492.149 1253.9 496.482 1243.5 496.5C1240.23 496.821 1238.73 495.487 1239 492.5C1248.5 485.186 1247.34 482.02 1235.5 483C1228.94 487.599 1227.77 493.432 1232 500.5C1255.73 518.503 1253.89 532.836 1226.5 543.5C1225.5 543.333 1224.5 543.167 1223.5 543C1220.67 534.833 1215.17 529.333 1207 526.5C1205.18 528.1 1204.02 530.1 1203.5 532.5C1204.23 537.301 1206.07 541.634 1209 545.5C1214.92 548.421 1219.92 552.421 1224 557.5C1224.99 563.153 1227.33 568.153 1231 572.5C1231.49 573.793 1231.66 575.127 1231.5 576.5C1227.54 576.911 1223.87 576.078 1220.5 574C1211.77 567.943 1205.27 560.11 1201 550.5C1199.16 539.123 1197.16 527.79 1195 516.5C1194.04 515.421 1193.21 514.255 1192.5 513C1187.81 510.576 1182.81 509.243 1177.5 509C1176.67 508.167 1175.83 507.333 1175 506.5C1171.29 499.369 1167.95 492.036 1165 484.5C1157.05 480.95 1149.22 481.45 1141.5 486C1132.3 494.871 1122.8 503.371 1113 511.5C1109.62 521.294 1110.45 530.794 1115.5 540C1114.94 542.058 1113.61 543.225 1111.5 543.5C1101.24 538.784 1092.07 532.451 1084 524.5C1081.5 521.498 1079.5 518.165 1078 514.5C1076.88 506.586 1074.88 498.919 1072 491.5C1063.52 488.679 1057.18 483.345 1053 475.5C1050.13 472.296 1046.96 469.463 1043.5 467C1023.82 466.487 1004.15 466.487 984.5 467C975.94 463.107 969.27 457.107 964.5 449C957.61 448.308 955.77 451.141 959 457.5C962.3 459.795 965.3 462.462 968 465.5C970.28 470.668 973.11 475.502 976.5 480C977.77 480.309 978.93 480.809 980 481.5C986.14 478.512 992.64 476.845 999.5 476.5C1009.7 476.277 1012.2 480.611 1007 489.5C1003.5 495.667 998.67 500.5 992.5 504C977.49 511.339 962.16 517.839 946.5 523.5C942.85 523.257 940.02 521.59 938 518.5C936 513.167 934 507.833 932 502.5C920.73 490.894 911.39 477.894 904 463.5C902.33 461.167 900.33 459.167 898 457.5C895.7 459.338 895.03 461.672 896 464.5C898.42 469.001 901.08 473.334 904 477.5C905.96 487.683 909.29 497.35 914 506.5C924.62 513.73 934.12 522.23 942.5 532C946.22 534.298 950.22 534.965 954.5 534C959.58 532.196 964.58 530.196 969.5 528C971.5 527.333 973.5 527.333 975.5 528C978.93 533.521 979.43 539.354 977 545.5C974.72 549.447 972.05 553.113 969 556.5C954.98 568.855 941.31 581.522 928 594.5C923.7 601.055 921.2 608.221 920.5 616C922.25 624.591 924.42 633.091 927 641.5C927.67 643.833 927.67 646.167 927 648.5C918.08 655.812 909.08 663.145 900 670.5C899.14 675.821 898.48 681.154 898 686.5C894.71 691.454 891.05 696.12 887 700.5C882.45 711.108 876.29 720.608 868.5 729C865.39 731.106 862.06 732.772 858.5 734C850.23 735.204 841.89 735.871 833.5 736C826.67 741.837 819.01 743.504 810.5 741C806.96 738.592 805.3 735.259 805.5 731C806.42 725.487 807.42 719.987 808.5 714.5C808.19 711.468 807.69 708.468 807 705.5C801.315 689.447 796.649 673.114 793 656.5C792.333 650.833 792.333 645.167 793 639.5C798.442 626.903 798.776 614.237 794 601.5C783.17 590.675 778.504 577.675 780 562.5C776.014 560.858 771.847 559.692 767.5 559C763.585 556.086 759.419 553.586 755 551.5C746.094 554.135 737.261 556.969 728.5 560C720.504 560.566 712.504 561.066 704.5 561.5C679.752 559.586 665.918 546.253 663 521.5C663.001 506.485 663.667 491.485 665 476.5C665.438 473.624 666.438 470.957 668 468.5C675.048 462.451 682.381 456.784 690 451.5C694.333 443.5 698.667 435.5 703 427.5C705.481 423.686 708.981 421.519 713.5 421C733.016 417.207 752.683 414.207 772.5 412C778.971 407.627 783.471 409.127 786 416.5C788.133 419.827 787.966 422.994 785.5 426C786.167 426.667 786.833 427.333 787.5 428C793.775 430.153 800.108 432.153 806.5 434C811.54 436.85 816.54 439.683 821.5 442.5C823.03 442.471 824.2 441.804 825 440.5C826.44 434.888 829.94 431.555 835.5 430.5C845.93 434.311 856.6 437.311 867.5 439.5C873.83 438.62 880.16 437.787 886.5 437C893.2 435.281 896.53 430.948 896.5 424C896.77 418.344 894.27 414.844 889 413.5C880.59 415.465 872.09 416.298 863.5 416C859.56 411.611 857.73 406.445 858 400.5C858.83 399.667 859.67 398.833 860.5 398C869.1 397.91 876.77 395.244 883.5 390C892.53 390.217 901.53 391.05 910.5 392.5C913.9 392.486 916.57 391.153 918.5 388.5C910.49 383.676 903.16 377.843 896.5 371C894.5 370.333 892.5 370.333 890.5 371C887.78 373.027 884.78 374.527 881.5 375.5C880.5 375 879.5 374.5 878.5 374C876.02 369.536 873.19 365.37 870 361.5C862.42 371.229 857.75 382.229 856 394.5C855.44 395.022 854.77 395.355 854 395.5C849.39 391.596 844.72 391.596 840 395.5C840.2 398.574 841.54 401.241 844 403.5C846.99 409.355 845.49 413.355 839.5 415.5C833.28 412.773 829.11 408.106 827 401.5C826.33 400.167 825.67 398.833 825 397.5C824.89 392.386 824.22 387.386 823 382.5C815.94 380.257 809.11 377.423 802.5 374C800.018 370.321 796.684 368.154 792.5 367.5C791.167 367.667 789.833 367.833 788.5 368C787.549 368.718 787.383 369.551 788 370.5C792.467 373.965 796.633 377.798 800.5 382C806 385.606 811.83 388.439 818 390.5C818.68 399.138 815.51 405.971 808.5 411C795.072 411.668 791.739 406.001 798.5 394C797.743 392.488 796.743 391.154 795.5 390C790.705 387.287 785.705 384.954 780.5 383C776.306 378.303 771.306 377.303 765.5 380C751.817 385.36 740.817 394.027 732.5 406C729.446 408.194 726.112 409.861 722.5 411C715.444 411.788 708.444 411.455 701.5 410C697.488 409.151 695.488 406.651 695.5 402.5C697.096 393.587 697.93 384.587 698 375.5C702.153 372.892 706.32 373.059 710.5 376C717.167 376.667 723.833 376.667 730.5 376C731.804 375.196 732.471 374.029 732.5 372.5C730.637 367.803 728.137 363.469 725 359.5C723.924 354.393 725.424 350.226 729.5 347C742.259 344.134 751.926 337.134 758.5 326C762.951 323.359 767.451 320.859 772 318.5C773.065 312.182 774.065 305.848 775 299.5C779.19 296.405 782.357 297.238 784.5 302C781.652 306.316 781.986 310.316 785.5 314C786.833 314.667 788.167 314.667 789.5 314C795.519 311.407 801.685 309.24 808 307.5C810.76 308.214 813.43 309.214 816 310.5C817.98 310.01 819.65 309.01 821 307.5C821.56 303.873 823.06 300.707 825.5 298C831.91 295.295 838.25 292.295 844.5 289C848.11 285.528 850.61 281.361 852 276.5C853.07 275.382 854.24 274.382 855.5 273.5C857.02 268.915 855.35 267.415 850.5 269C844.6 273.366 838.1 276.533 831 278.5C819.29 274.403 815.62 266.403 820 254.5C823.51 249.656 827.01 244.823 830.5 240C826.67 235.513 822.5 235.347 818 239.5C816.88 242.784 815.88 246.117 815 249.5C810.25 253.578 806.25 258.245 803 263.5C802.333 265.167 802.333 266.833 803 268.5C806.19 271.539 808.35 275.206 809.5 279.5C808.28 283.38 806.62 287.047 804.5 290.5C805.17 292.5 805.83 294.5 806.5 296.5C806.39 297.442 806.06 298.275 805.5 299C794.489 304.046 786.322 301.212 781 290.5C779.54 286.484 779.04 282.484 779.5 278.5C775.171 284.831 769.171 287.664 761.5 287C759.714 286.215 758.214 285.049 757 283.5C754.069 277 753.402 270.333 755 263.5C758.523 261.099 762.356 259.266 766.5 258C773.398 251.392 779.232 243.892 784 235.5C787.112 226.123 790.612 216.956 794.5 208C800.087 204.754 805.42 201.087 810.5 197C822.53 189.93 835.19 188.597 848.5 193C849.55 194.756 849.55 196.59 848.5 198.5C848.53 200.029 849.2 201.196 850.5 202C856.13 202.966 861.8 203.633 867.5 204C871.45 206.28 875.11 208.947 878.5 212C882.3 212.928 885.8 214.428 889 216.5C891.48 226.677 887.64 231.177 877.5 230C872.46 228.991 867.46 227.824 862.5 226.5C861.83 226.833 861.17 227.167 860.5 227.5C861.9 229.898 863.9 231.565 866.5 232.5C867.13 236.125 868.13 239.625 869.5 243C873.65 245.047 875.65 243.547 875.5 238.5C878.55 238.342 881.38 239.009 884 240.5C884.92 233.869 888.08 228.369 893.5 224C896.35 223.056 898.85 223.556 901 225.5C901.32 224.092 900.98 222.759 900 221.5C886.45 205.466 889.29 201.632 908.5 210C909.69 211.945 909.69 213.945 908.5 216C908.85 218.214 910.01 219.714 912 220.5C916.49 215.345 920.99 210.178 925.5 205C934.41 206.347 943.08 205.347 951.5 202C951.83 201.667 952.17 201.333 952.5 201C950.71 198.205 948.54 195.705 946 193.5C945.51 192.207 945.34 190.873 945.5 189.5C953.98 191.704 962.64 193.204 971.5 194C975.64 194.934 979.64 196.268 983.5 198C985.5 198.667 987.5 198.667 989.5 198C986.68 195.425 983.68 193.092 980.5 191C976.91 188.079 974.08 184.579 972 180.5C972.22 172.953 973.72 165.62 976.5 158.5C973.17 154.059 974.01 151.059 979 149.5C980.61 150.101 981.94 151.101 983 152.5C990.06 164.621 996.06 177.287 1001 190.5C1002.14 192.609 1003.64 194.442 1005.5 196C1008.65 196.238 1009.82 194.738 1009 191.5C1001.17 181.201 997.17 169.534 997 156.5C999.29 155.148 1001.79 154.481 1004.5 154.5C1008.16 155.286 1011.82 155.453 1015.5 155C1016 154.5 1016.5 154 1017 153.5C1016.33 150.167 1015.67 146.833 1015 143.5C1018.77 140.696 1022.94 138.529 1027.5 137C1028.57 136.261 1029.24 135.261 1029.5 134C1028.01 131.844 1026.51 129.677 1025 127.5C1024.25 124.697 1024.58 122.03 1026 119.5C1030.85 115.645 1035.35 111.478 1039.5 107C1043.64 105.792 1047.81 105.292 1052 105.5C1052.92 102.062 1054.59 99.0619 1057 96.4999C1057.48 92.3949 1056.98 88.3949 1055.5 84.4999C1055.86 81.8849 1057.19 80.0519 1059.5 78.9999C1067.33 78.2479 1074.66 79.7479 1081.5 83.4999C1084.8 82.4459 1088.13 81.9459 1091.5 81.9999C1097.99 85.6609 1104.49 89.1609 1111 92.4999C1112.87 97.1519 1112.87 101.818 1111 106.5C1108.06 112.718 1105.39 119.051 1103 125.5C1102.33 127.5 1102.33 129.5 1103 131.5C1105.33 128.167 1107.67 124.833 1110 121.5C1111.58 119.959 1113.41 118.792 1115.5 118C1122.92 115.771 1130.42 113.938 1138 112.5C1143.74 114.131 1149.57 115.464 1155.5 116.5C1162.06 115.98 1163.39 112.98 1159.5 107.5C1159.95 104.914 1161.45 103.58 1164 103.5C1170.94 104.641 1177.77 106.141 1184.5 108C1187.88 112.271 1190.21 117.104 1191.5 122.5C1193.75 123.245 1195.58 124.578 1197 126.5C1201.95 124.029 1206.45 121.029 1210.5 117.5ZM955.5 357.5C966.16 358.144 967.99 362.477 961 370.5C959.32 376.378 960.98 381.045 966 384.5C969.14 389.436 971.14 394.769 972 400.5C975.35 402.853 978.35 405.52 981 408.5C982.04 411.804 980.88 413.971 977.5 415C971.59 416.527 965.59 416.861 959.5 416C956.78 415.277 954.61 413.777 953 411.5C952.93 405.829 952.93 400.162 953 394.5C942.96 386.393 940.29 376.393 945 364.5C948.31 361.771 951.81 359.438 955.5 357.5Z" fill="#393939"/>
<path opacity="0.992" fill-rule="evenodd" clip-rule="evenodd" d="M167.5 94.5C174.028 94.751 180.362 95.917 186.5 98C194.941 111.76 206.941 121.093 222.5 126C227.373 130.744 230.706 136.41 232.5 143C237.017 142.592 241.351 141.259 245.5 139C260.157 135.657 273.491 138.324 285.5 147C292.667 153.5 299.833 160 307 166.5C307.769 169.099 307.602 171.599 306.5 174C307.071 175.205 307.738 176.372 308.5 177.5C312.764 178.909 317.097 180.075 321.5 181C323.913 183.562 325.58 186.562 326.5 190C327.833 190.667 329.167 190.667 330.5 190C331.295 182.706 335.295 178.539 342.5 177.5C347.363 180.859 352.363 184.026 357.5 187C360.77 192.108 365.104 195.941 370.5 198.5C374.768 197.4 377.601 194.734 379 190.5C383.278 186.765 387.445 182.932 391.5 179C395.261 178.262 398.928 178.595 402.5 180C405.057 182.892 407.224 186.059 409 189.5C410.062 190.899 411.395 191.899 413 192.5C419.203 192.318 423.703 189.485 426.5 184C432.354 181.261 436.354 182.928 438.5 189C437.514 192.654 435.681 195.82 433 198.5C432.759 201.289 432.092 203.956 431 206.5C427.051 208.71 422.884 210.543 418.5 212C415.014 213.947 414.681 216.28 417.5 219C420.939 221.139 424.106 223.639 427 226.5C427.92 229.308 427.087 231.475 424.5 233C418.187 236.194 411.521 237.194 404.5 236C399.919 234.752 397.586 231.752 397.5 227C395.5 226.333 393.5 226.333 391.5 227C382.669 232.917 373.669 238.583 364.5 244C357.055 252.119 355.555 261.286 360 271.5C364.561 275.866 369.728 279.366 375.5 282C377.795 285.297 380.462 288.297 383.5 291C387.77 292.095 392.104 292.928 396.5 293.5C397.695 299.229 397.361 304.896 395.5 310.5C395.812 314.991 397.978 316.324 402 314.5C402.779 308.383 403.946 302.383 405.5 296.5C409.738 294.519 414.071 292.686 418.5 291C419.126 290.25 419.626 289.416 420 288.5C419.184 281.548 418.85 274.548 419 267.5C423.495 260.869 426.161 253.536 427 245.5C427.748 241.086 430.248 239.586 434.5 241C437.663 243.416 440.996 245.582 444.5 247.5C446.306 246.141 447.806 246.475 449 248.5C449.475 252.789 451.475 256.122 455 258.5C456.036 262.623 456.87 266.79 457.5 271C461.293 274.733 465.626 275.4 470.5 273C473.08 269.842 475.413 266.508 477.5 263C479.134 262.506 480.801 262.34 482.5 262.5C482.772 266.902 482.439 271.235 481.5 275.5C482.098 276.795 482.598 278.128 483 279.5C485.374 281.539 487.374 283.872 489 286.5C487.315 291.193 488.482 295.026 492.5 298C495.328 300.248 498.328 302.248 501.5 304C503.81 305.637 505.31 307.804 506 310.5C506.667 314.5 506.667 318.5 506 322.5C502.634 325.368 499.8 328.701 497.5 332.5C502.492 337.323 507.658 341.99 513 346.5C515.077 350.674 513.744 353.008 509 353.5C501.263 351.308 493.43 349.641 485.5 348.5C486.547 342.179 489.214 336.679 493.5 332C493.167 331.833 492.833 331.667 492.5 331.5C489.696 333.138 487.029 334.971 484.5 337C474.5 337 464.5 337 454.5 337C439.167 347 423.833 357 408.5 367C402.877 370.145 396.877 372.145 390.5 373C385.569 376.814 380.235 379.98 374.5 382.5C378.984 383.742 383.317 383.242 387.5 381C403.319 372.524 418.653 363.191 433.5 353C441.432 347.687 450.099 345.687 459.5 347C460.022 347.561 460.355 348.228 460.5 349C458.541 351.136 457.207 353.636 456.5 356.5C456.608 357.442 456.941 358.275 457.5 359C458.872 359.402 460.205 359.902 461.5 360.5C465.568 359.366 469.568 358.033 473.5 356.5C477.13 357.426 480.797 358.093 484.5 358.5C485.035 361.238 484.035 363.072 481.5 364C472.566 367.145 463.566 369.979 454.5 372.5C451.675 372.881 449.509 371.881 448 369.5C447.502 366.183 447.335 362.85 447.5 359.5C445.856 359.286 444.356 359.62 443 360.5C441.228 366.122 439.561 371.789 438 377.5C436.833 378.667 435.667 379.833 434.5 381C427.272 383.641 419.939 385.974 412.5 388C411.5 388.833 410.5 389.667 409.5 390.5C406.616 401.37 403.116 412.037 399 422.5C393.423 426.706 387.59 430.54 381.5 434C378.943 436.892 376.776 440.059 375 443.5C374.732 449.663 374.899 455.83 375.5 462C375.333 464.833 375.167 467.667 375 470.5C373.534 472.325 371.701 472.825 369.5 472C361.513 466.534 359.513 459.368 363.5 450.5C363.06 447.786 361.726 445.62 359.5 444C356.052 442.073 352.385 440.739 348.5 440C334.537 438.533 320.871 439.867 307.5 444C299.903 448.327 295.07 454.827 293 463.5C291.458 468.92 290.291 474.42 289.5 480C291.289 490.773 297.789 496.273 309 496.5C313.308 496.176 317.141 494.676 320.5 492C322.77 487.463 325.77 483.463 329.5 480C333.606 477.445 337.939 476.945 342.5 478.5C344.124 479.869 344.624 481.536 344 483.5C340.394 489.707 336.061 495.373 331 500.5C330.517 506.362 333.35 509.529 339.5 510C344.559 510.358 349.559 509.858 354.5 508.5C358.31 508.259 360.644 509.926 361.5 513.5C359.754 518.402 358.421 523.402 357.5 528.5C357.551 530.1 357.884 531.6 358.5 533C366.125 535.025 373.792 536.858 381.5 538.5C388.486 535.351 394.819 531.185 400.5 526C402.725 524.869 405.058 524.036 407.5 523.5C415.184 526.927 423.018 529.927 431 532.5C438.779 530.977 446.612 530.477 454.5 531C456.725 531.561 458.725 532.561 460.5 534C465.221 540.054 470.554 545.388 476.5 550C485.947 550.675 495.28 552.008 504.5 554C509.046 558.877 513.213 564.044 517 569.5C517.667 570.833 517.667 572.167 517 573.5C515.647 574.685 514.48 576.019 513.5 577.5C513.833 577.833 514.167 578.167 514.5 578.5C520.115 579.289 525.782 579.789 531.5 580C536.579 582.038 541.579 584.371 546.5 587C561.785 587.225 573.952 593.392 583 605.5C583.667 607.5 583.667 609.5 583 611.5C576.396 623.098 569.396 634.431 562 645.5C559.179 656.744 556.845 668.077 555 679.5C553.5 681 552 682.5 550.5 684C543.138 686.229 536.138 689.229 529.5 693C523.45 698.26 519.284 704.76 517 712.5C510.326 720.517 504.659 729.183 500 738.5C495.883 743.142 490.716 745.475 484.5 745.5C486.795 751.114 486.962 756.78 485 762.5C484.097 763.701 482.931 764.535 481.5 765C473.623 764.764 468.289 768.264 465.5 775.5C461.835 776.997 458.502 778.997 455.5 781.5C454.716 786.172 455.05 790.839 456.5 795.5C455.368 799.76 453.701 803.76 451.5 807.5C452.728 810.238 454.562 812.571 457 814.5C457.667 817.5 457.667 820.5 457 823.5C451.025 830.904 450.025 838.904 454 847.5C458.272 849.774 461.939 852.774 465 856.5C466.159 863.342 463.159 866.342 456 865.5C438.932 865.987 427.599 858.321 422 842.5C419.262 834.954 416.929 827.287 415 819.5C413.95 799.934 412.117 780.434 409.5 761C412.517 745.25 415.017 729.417 417 713.5C418.229 698.14 418.229 682.807 417 667.5C411.662 662.568 405.495 658.735 398.5 656C394.4 653.533 390.566 650.699 387 647.5C382.861 637.888 378.194 628.554 373 619.5C369.312 614.814 365.312 610.481 361 606.5C359.384 601.12 361.051 597.12 366 594.5C366.206 588.723 367.039 583.056 368.5 577.5C372.811 574.357 376.978 571.023 381 567.5C381.667 561.167 381.667 554.833 381 548.5C380.167 547 379 545.833 377.5 545C365.722 544.043 354.055 542.377 342.5 540C339.074 536.341 336.241 532.174 334 527.5C327.351 523.707 320.184 521.207 312.5 520C309.062 519.08 306.062 517.413 303.5 515C296.201 513.98 288.868 513.313 281.5 513C277.072 512.303 273.072 510.637 269.5 508C261.595 500.666 254.762 492.499 249 483.5C244.609 473.659 240.609 463.659 237 453.5C233.467 445.597 229.301 438.097 224.5 431C220.023 430.835 218.523 433.002 220 437.5C222.606 442.435 225.606 447.102 229 451.5C231.873 458.372 235.039 465.039 238.5 471.5C234.751 475.461 230.918 475.461 227 471.5C226 468.167 225 464.833 224 461.5C214.509 442.515 204.509 423.849 194 405.5C188.202 391.379 185.869 376.712 187 361.5C191.161 350.509 195.327 339.509 199.5 328.5C198.822 325.456 197.989 322.456 197 319.5C194.139 315.112 191.806 310.446 190 305.5C190.419 296.854 190.419 288.187 190 279.5C186.907 275.819 183.907 272.152 181 268.5C179.129 260.266 177.796 251.933 177 243.5C172.957 235.461 167.457 228.628 160.5 223C156.969 220.823 153.136 219.656 149 219.5C136.849 221.464 124.683 223.297 112.5 225C96.3288 232.084 80.3288 239.751 64.4998 248C53.5038 253.443 42.0038 257.276 29.9998 259.5C28.1668 259.333 26.3328 259.167 24.4998 259C23.2088 256.91 23.8758 255.576 26.4998 255C44.8018 249.567 62.4678 242.567 79.4998 234C84.4108 230.922 88.0778 226.756 90.4998 221.5C89.9998 220.5 89.4998 219.5 88.9998 218.5C83.1008 215.269 77.7678 211.269 72.9998 206.5C66.1488 193.714 68.3158 182.547 79.4998 173C81.8878 171.139 84.5538 169.806 87.4998 169C93.8328 168.667 100.167 168.333 106.5 168C109.1 165.541 109.1 163.041 106.5 160.5C102.845 159.668 99.1788 158.835 95.4998 158C89.5328 154.608 88.0328 149.774 90.9998 143.5C96.2548 136.476 103.088 134.309 111.5 137C113.5 139.333 115.5 141.667 117.5 144C118.5 144.667 119.5 144.667 120.5 144C121.61 141.263 121.777 138.429 121 135.5C118.68 129.875 117.18 124.041 116.5 118C116.273 113.586 118.273 111.086 122.5 110.5C125.812 111.379 129.145 111.546 132.5 111C138.5 107 144.5 103 150.5 99C156.332 97.627 161.998 96.127 167.5 94.5ZM369.5 352.5C366.737 351.013 363.737 350.346 360.5 350.5C353.303 350.866 346.303 352.199 339.5 354.5C338.718 352.671 339.384 351.171 341.5 350C347.582 346.877 353.415 343.377 359 339.5C362.926 341.591 366.426 344.258 369.5 347.5C370.815 349.199 370.815 350.865 369.5 352.5ZM370.5 354.5C375.251 356.724 380.251 358.224 385.5 359C392.874 364.878 391.874 367.878 382.5 368C380.542 370.748 378.709 373.582 377 376.5C373.155 367.398 367.489 366.065 360 372.5C359.881 377.571 357.881 381.571 354 384.5C348.529 381.501 347.196 377.167 350 371.5C353.046 361.226 359.88 356.892 370.5 358.5C370.5 357.167 370.5 355.833 370.5 354.5Z" fill="#393939"/>
<path opacity="0.984" fill-rule="evenodd" clip-rule="evenodd" d="M311.5 98.5002C320.424 98.3062 328.757 100.473 336.5 105C342.167 108.687 343.834 113.687 341.5 120C342.083 122.915 343.75 124.915 346.5 126C349.833 126.333 353.167 126.667 356.5 127C357 127.5 357.5 128 358 128.5C357.951 131.345 357.451 134.178 356.5 137C357.593 140.083 358.76 139.917 360 136.5C361.126 132.535 362.126 128.535 363 124.5C363.465 123.069 364.299 121.903 365.5 121C370.152 119.807 374.319 120.64 378 123.5C378.667 125.167 378.667 126.833 378 128.5C375.059 133.772 371.726 138.772 368 143.5C366.743 145.513 365.909 147.679 365.5 150C367.846 154.52 370.346 159.02 373 163.5C373.798 165.259 373.631 166.926 372.5 168.5C366.866 170.878 361.033 172.545 355 173.5C350.333 172.167 345.667 170.833 341 169.5C334.822 170.446 328.655 171.446 322.5 172.5C319.674 172.176 317.174 171.176 315 169.5C311.22 163.772 308.386 157.606 306.5 151C307.197 143.374 309.03 136.207 312 129.5C306.301 133.055 300.134 134.221 293.5 133C288.242 130.434 287.242 126.767 290.5 122C301.961 118.044 308.961 110.211 311.5 98.5002Z" fill="#393939"/>
<path opacity="0.968" fill-rule="evenodd" clip-rule="evenodd" d="M858.5 101.5C861.17 101.5 863.83 101.5 866.5 101.5C866.34 103.199 866.51 104.866 867 106.5C869.56 108.189 872.39 109.356 875.5 110C878.06 112.276 877.73 114.276 874.5 116C870.99 117.558 867.33 118.392 863.5 118.5C859.44 117.625 855.44 116.458 851.5 115C846.5 113.504 844.84 110.338 846.5 105.5C850.61 104.147 854.61 102.814 858.5 101.5Z" fill="#393939"/>
<path opacity="0.047" fill-rule="evenodd" clip-rule="evenodd" d="M1210.5 117.5C1209.83 116.167 1209.83 116.167 1210.5 117.5Z" fill="#393939"/>
<path opacity="0.973" fill-rule="evenodd" clip-rule="evenodd" d="M957.5 117.5C964.6 117.772 967.43 121.438 966 128.5C959.91 131.462 953.74 134.295 947.5 137C943 140.833 938.5 144.667 934 148.5C929.85 155.626 926.68 163.126 924.5 171C926.06 175.934 927.73 180.767 929.5 185.5C919.34 185.344 913.01 180.344 910.5 170.5C912.84 163.635 915.68 156.968 919 150.5C920.95 145.658 922.28 140.658 923 135.5C930.96 128.77 940.13 124.603 950.5 123C952.54 120.664 954.87 118.831 957.5 117.5Z" fill="#393939"/>
<path opacity="0.035" fill-rule="evenodd" clip-rule="evenodd" d="M1207.5 117.5C1208.83 118.167 1208.83 118.167 1207.5 117.5Z" fill="#393939"/>
<path opacity="0.982" fill-rule="evenodd" clip-rule="evenodd" d="M391.5 124.5C394.85 124.335 398.183 124.502 401.5 125C403.449 128.645 406.115 129.312 409.5 127C414.833 126.333 420.167 126.333 425.5 127C426.516 127.519 427.182 128.353 427.5 129.5C426.129 133.043 424.129 136.21 421.5 139C416.262 143.203 410.762 147.036 405 150.5C404.362 151.609 403.862 152.775 403.5 154C405.174 159.064 405.674 164.23 405 169.5C404.535 170.931 403.701 172.097 402.5 173C395.795 174.729 390.295 172.895 386 167.5C385.306 163.998 385.806 160.664 387.5 157.5C382.887 151.338 380.22 144.338 379.5 136.5C379.577 134.701 380.077 133.034 381 131.5C384.154 128.488 387.654 126.155 391.5 124.5Z" fill="#393939"/>
<path opacity="0.985" fill-rule="evenodd" clip-rule="evenodd" d="M437.5 135.5C439.857 135.337 442.19 135.503 444.5 136C445.833 137.667 447.167 139.333 448.5 141C457.182 139.341 465.015 141.174 472 146.5C472.42 152.027 473.586 157.36 475.5 162.5C482.189 167.022 487.689 172.689 492 179.5C492.667 181.5 492.667 183.5 492 185.5C489.392 189.707 487.392 194.04 486 198.5C489.315 201.279 493.149 203.113 497.5 204C500.181 208.669 503.515 212.669 507.5 216C507.333 216.833 507.167 217.667 507 218.5C502.52 220.978 499.52 224.645 498 229.5C497.255 230.99 496.088 231.99 494.5 232.5C491.762 231.272 489.429 229.438 487.5 227C485.911 225.457 484.577 225.457 483.5 227C485.545 230.362 487.545 233.695 489.5 237C488.885 242.206 488.051 247.372 487 252.5C483.682 255.937 479.849 256.437 475.5 254C467.686 251.688 461.186 247.522 456 241.5C455.667 238.5 455.333 235.5 455 232.5C454.5 232 454 231.5 453.5 231C447.581 229.804 441.581 229.138 435.5 229C433.39 224.721 434.057 220.721 437.5 217C448.013 219.486 455.846 215.986 461 206.5C464.126 197.076 462.626 188.576 456.5 181C454.043 179.438 451.376 178.438 448.5 178C440.356 177.992 432.356 176.992 424.5 175C419.69 172.521 415.857 169.021 413 164.5C412.286 159.581 413.619 155.247 417 151.5C422.611 144.364 429.444 139.031 437.5 135.5Z" fill="#393939"/>
<path opacity="0.976" fill-rule="evenodd" clip-rule="evenodd" d="M649.5 228.5C650.873 228.343 652.207 228.51 653.5 229C655.742 230.762 658.076 232.262 660.5 233.5C663.92 232.626 667.253 231.459 670.5 230C678.047 228.44 683.381 231.107 686.5 238C681.502 248.626 673.002 254.126 661 254.5C656.404 254.353 652.237 253.019 648.5 250.5C647.811 248.556 647.311 246.556 647 244.5C644.509 241.681 642.676 238.514 641.5 235C641.585 233.893 641.919 232.893 642.5 232C644.713 230.384 647.047 229.217 649.5 228.5Z" fill="#393939"/>
<path opacity="0.954" fill-rule="evenodd" clip-rule="evenodd" d="M1336.5 265.5C1338.72 265.178 1340.56 265.845 1342 267.5C1346.77 277.147 1350.77 287.147 1354 297.5C1355.26 301.016 1357.26 304.016 1360 306.5C1360.78 307.944 1360.61 309.277 1359.5 310.5C1357.43 310.953 1355.77 311.953 1354.5 313.5C1357.87 317.859 1361.2 322.192 1364.5 326.5C1360.75 332.943 1356.91 332.943 1353 326.5C1349.68 307.555 1344.35 289.221 1337 271.5C1336.5 269.527 1336.34 267.527 1336.5 265.5Z" fill="#393939"/>
<path opacity="0.971" fill-rule="evenodd" clip-rule="evenodd" d="M720.5 285.5C724.757 285.735 726.09 287.735 724.5 291.5C729.779 295.239 729.779 299.072 724.5 303C728.514 303.878 730.514 306.378 730.5 310.5C736.083 312.581 738.583 316.581 738 322.5C741.739 320.525 743.906 321.525 744.5 325.5C744.514 327.593 743.848 329.426 742.5 331C743.517 332.049 743.684 333.216 743 334.5C740.531 336.652 737.698 338.152 734.5 339C727.918 339.771 721.418 340.938 715 342.5C713.5 342.167 712 341.833 710.5 341.5C712.934 338.777 715.601 336.277 718.5 334C719.833 333.667 721.167 333.333 722.5 333C720.19 332.503 717.857 332.337 715.5 332.5C715.799 330.027 716.799 327.86 718.5 326C717.767 324.234 717.433 322.401 717.5 320.5C719.5 320.5 721.5 320.5 723.5 320.5C723.244 318.063 722.577 315.729 721.5 313.5C719.328 312.795 717.328 311.795 715.5 310.5C714.036 305.576 712.036 300.909 709.5 296.5C711.546 291.12 715.213 287.454 720.5 285.5Z" fill="#393939"/>
<path opacity="0.963" fill-rule="evenodd" clip-rule="evenodd" d="M704.5 307.5C711.093 306.513 714.593 309.179 715 315.5C711.986 318.447 710.652 322.113 711 326.5C707.911 327.96 705.078 329.793 702.5 332C697.875 333.552 694.542 332.219 692.5 328C693.918 324.999 694.751 321.832 695 318.5C698.061 314.616 701.227 310.949 704.5 307.5Z" fill="#393939"/>
<path opacity="0.971" fill-rule="evenodd" clip-rule="evenodd" d="M1387.5 328.5C1388.98 328.238 1390.31 328.571 1391.5 329.5C1387.72 334.78 1383.39 339.614 1378.5 344C1380.28 345.067 1380.78 346.567 1380 348.5C1377.2 350.293 1374.7 352.46 1372.5 355C1369.95 355.66 1367.45 355.493 1365 354.5C1363.5 354.667 1362.67 355.5 1362.5 357C1365.55 362.72 1369.38 367.886 1374 372.5C1374.44 382.5 1374.44 392.5 1374 402.5C1371.29 406.104 1367.79 408.604 1363.5 410C1356.83 412 1350.17 414 1343.5 416C1341.35 419.892 1339.35 423.892 1337.5 428C1332.94 428.806 1329.77 426.973 1328 422.5C1326.57 414.783 1328.74 408.283 1334.5 403C1338.99 401.118 1343.66 399.785 1348.5 399C1350.7 395.465 1353.53 392.632 1357 390.5C1360.81 385.067 1362.14 379.067 1361 372.5C1357.85 367.362 1355.68 361.862 1354.5 356C1354.62 352.592 1355.95 349.758 1358.5 347.5C1357.08 343.972 1356.41 340.306 1356.5 336.5C1360.25 336.402 1363.58 337.569 1366.5 340C1371.4 340.937 1376.07 340.27 1380.5 338C1382.48 334.537 1384.81 331.37 1387.5 328.5Z" fill="#393939"/>
<path opacity="0.962" fill-rule="evenodd" clip-rule="evenodd" d="M771.5 382.5C773.766 382.141 775.599 382.808 777 384.5C777.119 389.729 777.286 394.895 777.5 400C776.741 403.725 774.407 405.558 770.5 405.5C771.446 397.771 771.779 390.105 771.5 382.5Z" fill="#393939"/>
<path opacity="0.95" fill-rule="evenodd" clip-rule="evenodd" d="M1295.5 459.5C1299.79 458.483 1302.12 460.15 1302.5 464.5C1300.45 468.94 1299.28 473.607 1299 478.5C1293.42 480.281 1290.59 478.114 1290.5 472C1290.94 467.299 1292.6 463.132 1295.5 459.5Z" fill="#393939"/>
<path opacity="0.966" fill-rule="evenodd" clip-rule="evenodd" d="M358.5 474.5C369.318 473.784 378.985 476.617 387.5 483C393.274 486.222 399.274 488.888 405.5 491C426.682 488.492 446.016 493.159 463.5 505C462.892 505.87 462.059 506.37 461 506.5C453.554 502.962 445.72 500.962 437.5 500.5C427.192 501.816 416.859 502.316 406.5 502C400.39 499.779 394.723 496.779 389.5 493C385.659 492.124 381.993 490.791 378.5 489C372.5 481.833 365.167 480 356.5 483.5C352.448 483.293 350.948 481.293 352 477.5C354.166 476.269 356.333 475.269 358.5 474.5Z" fill="#393939"/>
<path opacity="0.98" fill-rule="evenodd" clip-rule="evenodd" d="M1293.5 492.5C1300.28 491.636 1304.95 494.302 1307.5 500.5C1306.15 504.077 1305.65 507.744 1306 511.5C1311.78 514.401 1317.12 518.068 1322 522.5C1325.41 529.891 1327.91 537.557 1329.5 545.5C1330.23 549.18 1328.9 551.68 1325.5 553C1319.24 555.437 1312.91 555.77 1306.5 554C1305.84 547.235 1305.67 540.401 1306 533.5C1304.58 531.637 1302.75 531.137 1300.5 532C1289.18 535.475 1284.68 542.975 1287 554.5C1288.73 556.451 1290.9 557.451 1293.5 557.5C1293.55 560.967 1292.05 563.634 1289 565.5C1288.83 566.333 1288.67 567.167 1288.5 568C1289.2 570.38 1290.37 572.547 1292 574.5C1292.67 575.5 1292.67 576.5 1292 577.5C1284.48 583.4 1279.98 590.9 1278.5 600C1267.42 602.194 1257.92 599.36 1250 591.5C1245.19 583.639 1245.36 575.972 1250.5 568.5C1254.83 567.485 1259.16 567.318 1263.5 568C1268.73 564.976 1273.23 561.143 1277 556.5C1278.53 549.359 1280.53 542.359 1283 535.5C1286.53 532.395 1289.86 529.061 1293 525.5C1292.66 518.465 1291.83 511.465 1290.5 504.5C1290.09 500.062 1291.09 496.062 1293.5 492.5Z" fill="#393939"/>
<path opacity="0.962" fill-rule="evenodd" clip-rule="evenodd" d="M1114.5 544.5C1123.41 544.243 1127.24 548.576 1126 557.5C1124.44 562.699 1121.27 564.199 1116.5 562C1110.8 556.647 1110.14 550.814 1114.5 544.5Z" fill="#393939"/>
<path opacity="0.976" fill-rule="evenodd" clip-rule="evenodd" d="M1178.5 556.5C1185.89 558.187 1192.89 561.021 1199.5 565C1210.23 571.729 1219.73 579.895 1228 589.5C1231.54 595.398 1234.04 601.564 1235.5 608C1242.71 609.979 1250.04 611.313 1257.5 612C1269.49 616.387 1281.82 619.22 1294.5 620.5C1306.15 619.445 1317.82 619.278 1329.5 620C1330.83 620.667 1332.17 621.333 1333.5 622C1330.02 623.254 1326.36 623.921 1322.5 624C1304.5 624.667 1286.5 624.667 1268.5 624C1253.81 623.163 1239.48 620.497 1225.5 616C1216.05 607.223 1206.55 598.389 1197 589.5C1191.99 580.136 1185.99 571.47 1179 563.5C1177.34 561.214 1177.17 558.881 1178.5 556.5Z" fill="#393939"/>
<path opacity="0.962" fill-rule="evenodd" clip-rule="evenodd" d="M1323.5 570.5C1325.17 570.5 1326.83 570.5 1328.5 570.5C1328.71 572.144 1328.38 573.644 1327.5 575C1321.01 578.078 1314.68 581.412 1308.5 585C1313.63 585.128 1318.63 584.295 1323.5 582.5C1324.83 585.167 1324.83 587.833 1323.5 590.5C1318.8 590.12 1314.46 591.12 1310.5 593.5C1313.72 596.928 1314.89 600.928 1314 605.5C1313.28 606.059 1312.44 606.392 1311.5 606.5C1308.59 605.103 1306.09 603.103 1304 600.5C1302.38 602.241 1300.88 604.075 1299.5 606C1295.25 607.414 1292.75 605.914 1292 601.5C1290.02 589.3 1294.85 581.134 1306.5 577C1310.56 576.66 1314.56 575.993 1318.5 575C1320.99 574.344 1322.65 572.844 1323.5 570.5Z" fill="#393939"/>
<path opacity="0.977" fill-rule="evenodd" clip-rule="evenodd" d="M1355.5 582.5C1358.27 582.421 1360.94 582.921 1363.5 584C1365.59 587.436 1367.59 590.936 1369.5 594.5C1372.65 591.838 1376.15 589.838 1380 588.5C1396.06 591.174 1410.23 597.674 1422.5 608C1432.54 608.667 1441.38 605.834 1449 599.5C1451.28 599.812 1452.45 601.145 1452.5 603.5C1452.29 604.994 1451.62 606.161 1450.5 607C1441.95 608.373 1433.78 610.873 1426 614.5C1426.12 617.343 1427.28 619.843 1429.5 622C1433.83 623.161 1437.5 625.327 1440.5 628.5C1440.29 629.086 1439.96 629.586 1439.5 630C1432.96 631.011 1426.63 630.344 1420.5 628C1418.5 625.667 1416.5 623.333 1414.5 621C1410.04 621.231 1405.71 622.065 1401.5 623.5C1395.36 622.798 1389.36 621.465 1383.5 619.5C1383.03 616.074 1382.03 612.908 1380.5 610C1373.58 606.138 1366.25 603.472 1358.5 602C1356.39 600.859 1354.56 599.359 1353 597.5C1352.41 596.101 1352.57 594.768 1353.5 593.5C1351.11 592.108 1349.44 590.108 1348.5 587.5C1348.61 586.558 1348.94 585.725 1349.5 585C1351.72 584.434 1353.72 583.6 1355.5 582.5Z" fill="#393939"/>
<path opacity="0.948" fill-rule="evenodd" clip-rule="evenodd" d="M1323.5 594.5C1329.89 594.308 1336.06 595.308 1342 597.5C1345.22 595.897 1348.05 596.397 1350.5 599C1349.83 599.667 1349.17 600.333 1348.5 601C1342.5 601.667 1336.5 601.667 1330.5 601C1326.35 600.619 1324.01 598.453 1323.5 594.5Z" fill="#393939"/>
<path opacity="0.942" fill-rule="evenodd" clip-rule="evenodd" d="M1460.5 605.5C1470.66 608.911 1480.32 613.411 1489.5 619C1494.03 623 1497.03 627.834 1498.5 633.5C1496.01 633.702 1493.68 633.202 1491.5 632C1489.16 628.296 1486.83 624.629 1484.5 621C1477.06 618.464 1469.73 615.631 1462.5 612.5C1459.77 610.643 1459.1 608.309 1460.5 605.5Z" fill="#393939"/>
<path opacity="0.991" fill-rule="evenodd" clip-rule="evenodd" d="M1368.5 634.5C1375.24 633.493 1377.24 636.16 1374.5 642.5C1372.27 643.742 1370.1 645.076 1368 646.5C1367.02 647.759 1366.68 649.092 1367 650.5C1373.67 655.669 1380.67 660.335 1388 664.5C1390.88 663.424 1392.88 661.424 1394 658.5C1394.94 650.665 1396.61 642.998 1399 635.5C1400.73 634.424 1402.56 634.257 1404.5 635C1405.46 638.099 1406.29 641.266 1407 644.5C1410.08 647.659 1412.42 651.325 1414 655.5C1414.23 661.435 1415.57 667.102 1418 672.5C1422.04 676.2 1425.7 680.2 1429 684.5C1433.76 691.593 1438.1 698.926 1442 706.5C1442.63 717.728 1441.3 728.728 1438 739.5C1428.6 753.913 1418.76 768.08 1408.5 782C1396.77 787.867 1385.1 787.534 1373.5 781C1366.32 775.624 1361.65 768.624 1359.5 760C1363.04 749.844 1361.37 748.511 1354.5 756C1352.04 757.864 1349.88 757.698 1348 755.5C1347 751.5 1346 747.5 1345 743.5C1343.24 740.732 1340.74 739.232 1337.5 739C1330.1 738.675 1322.76 739.341 1315.5 741C1307.03 743.603 1298.69 746.603 1290.5 750C1281.9 752.122 1273.24 753.455 1264.5 754C1259.37 752.698 1256.03 749.532 1254.5 744.5C1256.62 739.881 1258.96 735.381 1261.5 731C1258.37 718.264 1257.54 705.431 1259 692.5C1260.68 687.82 1263.51 683.987 1267.5 681C1277.22 678.486 1286.89 675.82 1296.5 673C1298.67 668.332 1301.33 663.999 1304.5 660C1307.11 658.979 1309.77 658.145 1312.5 657.5C1316.07 652.766 1320.4 648.933 1325.5 646C1329.09 645.211 1332.59 645.378 1336 646.5C1340.55 643.804 1345.05 640.971 1349.5 638C1356 637.01 1362.33 635.843 1368.5 634.5Z" fill="#393939"/>
<path opacity="0.978" fill-rule="evenodd" clip-rule="evenodd" d="M962.5 635.5C967.8 636.792 970.14 640.292 969.5 646C965.48 659.077 961.64 672.243 958 685.5C953.91 691.961 948.08 694.794 940.5 694C939.33 693.5 938.5 692.667 938 691.5C937.34 689.2 936.84 686.867 936.5 684.5C938.34 675.154 940.17 665.821 942 656.5C947.78 651.603 953.78 646.936 960 642.5C960.85 640.146 961.68 637.812 962.5 635.5Z" fill="#393939"/>
<path opacity="0.952" fill-rule="evenodd" clip-rule="evenodd" d="M1511.5 650.5C1514.12 650.232 1516.62 650.565 1519 651.5C1520.66 659.464 1521.66 667.464 1522 675.5C1515.48 668.458 1511.98 660.125 1511.5 650.5Z" fill="#393939"/>
<path opacity="0.922" fill-rule="evenodd" clip-rule="evenodd" d="M1569.5 656.5C1571.72 656.559 1572.72 657.725 1572.5 660C1570.76 666.042 1566.76 669.542 1560.5 670.5C1560.3 668.011 1560.8 665.677 1562 663.5C1565 661.667 1567.5 659.334 1569.5 656.5Z" fill="#393939"/>
<path opacity="0.942" fill-rule="evenodd" clip-rule="evenodd" d="M1497.5 678.5C1498.55 678.351 1499.55 678.517 1500.5 679C1502.34 682.855 1505.01 686.022 1508.5 688.5C1509.71 692.085 1508.38 693.251 1504.5 692C1499.95 688.739 1497.62 684.239 1497.5 678.5Z" fill="#393939"/>
<path opacity="0.965" fill-rule="evenodd" clip-rule="evenodd" d="M1519.5 763.5C1521.91 763.137 1523.41 764.137 1524 766.5C1524.33 770.5 1524.67 774.5 1525 778.5C1526.33 781.833 1527.67 785.167 1529 788.5C1530.12 790.124 1531.62 791.124 1533.5 791.5C1537 790.838 1540.16 789.504 1543 787.5C1543.67 789.833 1543.67 792.167 1543 794.5C1539.33 797.5 1535.67 800.5 1532 803.5C1529.82 809.361 1526.99 814.861 1523.5 820C1515.05 823.122 1507.05 827.122 1499.5 832C1495.2 837.301 1490.53 842.301 1485.5 847C1480.51 850.588 1475.18 851.588 1469.5 850C1467.61 847.083 1467.11 843.916 1468 840.5C1475.75 835.375 1483.58 830.375 1491.5 825.5C1496.17 819.833 1500.83 814.167 1505.5 808.5C1510.74 806.257 1514.41 807.757 1516.5 813C1517.45 813.617 1518.28 813.451 1519 812.5C1519.23 808.448 1518.73 804.448 1517.5 800.5C1521.17 793.174 1521.17 785.841 1517.5 778.5C1518.06 775.947 1518.06 773.28 1517.5 770.5C1517.32 767.837 1517.99 765.503 1519.5 763.5Z" fill="#393939"/>
<path opacity="0.97" fill-rule="evenodd" clip-rule="evenodd" d="M1384.5 795.5C1388.92 795.305 1393.25 795.805 1397.5 797C1398.62 797.839 1399.29 799.006 1399.5 800.5C1397.52 807.968 1393.85 814.468 1388.5 820C1385.04 821.123 1382.21 820.29 1380 817.5C1378 811.833 1378 806.167 1380 800.5C1381.02 798.313 1382.52 796.646 1384.5 795.5Z" fill="#393939"/>
<path opacity="0.95" fill-rule="evenodd" clip-rule="evenodd" d="M473.5 835.5C476.691 836.092 479.691 837.259 482.5 839C483.38 840.356 483.714 841.856 483.5 843.5C479.098 843.772 474.765 843.439 470.5 842.5C469.417 841.635 469.251 840.635 470 839.5C471.032 837.973 472.199 836.64 473.5 835.5Z" fill="#393939"/>
</svg>
